<svg width="260" height="220" viewBox="0 0 260 220" fill="none" xmlns="http://www.w3.org/2000/svg">
  <defs>
    <linearGradient id="metal1" x1="0" y1="0" x2="1" y2="1">
      <stop offset="0" stop-color="#f6f7f8"/>
      <stop offset="0.35" stop-color="#b9c0c7"/>
      <stop offset="0.62" stop-color="#ffffff"/>
      <stop offset="1" stop-color="#9098a0"/>
    </linearGradient>
    <linearGradient id="blue1" x1="0" y1="0" x2="1" y2="1">
      <stop offset="0" stop-color="#58a0db"/>
      <stop offset="1" stop-color="#0e5ea6"/>
    </linearGradient>
  </defs>
  <rect width="260" height="220" fill="#fff"/>
  <rect x="32" y="78" width="170" height="10" rx="5" fill="url(#metal1)" transform="rotate(-10 32 78)"/>
  <rect x="116" y="60" width="78" height="14" rx="4" fill="url(#metal1)" transform="rotate(-10 116 60)"/>
  <rect x="46" y="88" width="12" height="22" rx="3" fill="url(#metal1)" transform="rotate(-10 46 88)"/>
  <rect x="168" y="48" width="12" height="42" rx="4" fill="url(#metal1)" transform="rotate(-10 168 48)"/>
  <path d="M46 146C46 122 64 108 90 108C111 108 124 121 124 142C124 164 108 178 87 178C63 178 46 168 46 146Z" fill="url(#blue1)"/>
  <circle cx="88" cy="144" r="18" fill="#f7f7f7"/>
  <circle cx="88" cy="144" r="8" fill="#4f5660"/>
  <path d="M118 103L174 91L177 104L121 116L118 103Z" fill="url(#metal1)"/>
  <rect x="140" y="112" width="70" height="12" rx="4" fill="url(#metal1)" transform="rotate(-10 140 112)"/>
</svg>
